<svg version="1.1" xmlns="http://www.w3.org/2000/svg" xmlns:xlink="http://www.w3.org/1999/xlink" width="500" height="500"><g data-paper-data="{&quot;description&quot;:&quot;Logo for MakeShip\n=================\n\nThis logo was generated by MarkMaker at http://emblemmatic.org/markmaker/ and may be composed of elements designed by others.\n\nThe font is Catamaran Black designed by Pria Ravichandran and released under the OFL license via Google Fonts: https://www.google.com/fonts/specimen/Catamaran. The font includes this copyright statement: Copyright 2014 Pria Ravichandran (pria.ravichandran@gmail.com)\n\nMarkMaker uses semantic data from the Princeton University WordNet database http://wordnet.princeton.edu and font descriptions from Google Fonts https://www.google.com/fonts.&quot;}" fill="none" fill-rule="nonzero" stroke="none" stroke-width="none" stroke-linecap="butt" stroke-linejoin="miter" stroke-miterlimit="10" stroke-dasharray="" stroke-dashoffset="0" font-family="none" font-weight="none" font-size="none" text-anchor="none" style="mix-blend-mode: normal"><path d="M375.62541,289.15462v-78.30925h74.37459v78.30925z" fill="none" stroke="#125e5e" stroke-width="3.5"></path><g data-paper-data="{&quot;elementType&quot;:&quot;logo&quot;}" fill="#125e5e" stroke="none" stroke-width="1"><g data-paper-data="{&quot;elementType&quot;:&quot;text&quot;}"><g data-paper-data="{&quot;baseline&quot;:74.9,&quot;elementType&quot;:&quot;row&quot;}"><g data-paper-data="{&quot;baselineProportion&quot;:0.7737603305785123,&quot;fontSize&quot;:100,&quot;baseline&quot;:74.9,&quot;elementType&quot;:&quot;word&quot;}"><path d="M80.80865,245.68544l-6.20218,8.35946l-4.92129,0.67415l-7.41565,-9.03361v22.17953h-12.26953v-45.84219h8.42687l13.82007,17.46048l12.67402,-17.46048h8.15721v45.84219h-12.26953z" data-paper-data="{&quot;elementType&quot;:&quot;letter&quot;,&quot;baseline&quot;:68,&quot;baselineProportion&quot;:1,&quot;fontSize&quot;:100}"></path><path d="M104.94321,245.9551l-3.23592,-8.83136c1.88762,-0.85392 4.13479,-1.58425 6.7415,-2.19099c2.60671,-0.60673 5.16848,-0.9101 7.68531,-0.9101c4.3595,0 7.70778,1.21347 10.04483,3.64041c2.33705,2.42694 3.50558,5.75275 3.50558,9.97742v20.2245h-5.93252l-3.50558,-3.37075c-2.15728,2.74154 -4.60669,4.11231 -7.34823,4.11231c-4.0449,0 -7.10105,-1.01122 -9.16844,-3.03367c-2.06739,-2.02245 -3.10109,-4.76399 -3.10109,-8.22463c0,-6.38195 4.26962,-9.57293 12.80885,-9.57293h3.91007c-0.17977,-1.25841 -0.64044,-2.20222 -1.38201,-2.83143c-0.74156,-0.62921 -1.69661,-0.94381 -2.86514,-0.94381c-1.07864,0 -2.39323,0.19101 -3.94378,0.57303c-1.55054,0.38202 -2.95502,0.84269 -4.21344,1.38201M111.51617,258.79766c0.42696,0.42696 0.95505,0.64044 1.58425,0.64044c1.39324,0 2.83143,-0.60673 4.31456,-1.8202v-3.10109h-3.77524c-0.80898,0 -1.47189,0.24719 -1.98874,0.74156c-0.51685,0.49438 -0.77527,1.12358 -0.77527,1.88762c0,0.67415 0.21348,1.22471 0.64044,1.65167z" data-paper-data="{&quot;elementType&quot;:&quot;letter&quot;,&quot;baseline&quot;:50.2,&quot;baselineProportion&quot;:0.9785575048732944,&quot;fontSize&quot;:100}"></path><path d="M149.10003,257.34823v10.51674h-12.26953v-46.85342l12.26953,-0.74156v24.2694l12.20211,-10.31449l7.34823,8.42687l-8.69653,6.53925l11.05606,18.67395h-13.21334l-6.47184,-12.20211z" data-paper-data="{&quot;elementType&quot;:&quot;letter&quot;,&quot;baseline&quot;:70.60000000000001,&quot;baselineProportion&quot;:1,&quot;fontSize&quot;:100}"></path><path d="M205.59379,251.01122v3.57299h-19.88742c0.44943,1.39324 1.29212,2.48312 2.52806,3.26963c1.23594,0.78651 2.86514,1.17976 4.88759,1.17976c3.10109,0 6.08982,-0.74156 8.96619,-2.22469l3.43816,8.29204c-1.3483,0.98875 -3.2921,1.8202 -5.8314,2.49435c-2.5393,0.67415 -5.13477,1.01122 -7.78643,1.01122c-3.82018,0 -7.20217,-0.65168 -10.14596,-1.95503c-2.94379,-1.30336 -5.24713,-3.24716 -6.91004,-5.8314c-1.6629,-2.58424 -2.49435,-5.67409 -2.49435,-9.26956c0,-3.55052 0.76404,-6.65161 2.29211,-9.30327c1.52807,-2.65166 3.62917,-4.68534 6.3033,-6.10106c2.67413,-1.41571 5.67409,-2.12357 8.9999,-2.12357c3.37075,0 6.22465,0.76404 8.5617,2.29211c2.33705,1.52807 4.10108,3.57299 5.29208,6.13476c1.191,2.56177 1.7865,5.41567 1.7865,8.5617M193.86358,248.51687c0,-1.12358 -0.35955,-2.17975 -1.07864,-3.1685c-0.71909,-0.98875 -1.77526,-1.48313 -3.1685,-1.48313c-1.12358,0 -2.12357,0.4719 -2.99997,1.41571c-0.87639,0.94381 -1.29212,2.02245 -1.24718,3.23592z" data-paper-data="{&quot;elementType&quot;:&quot;letter&quot;,&quot;baseline&quot;:50.2,&quot;baselineProportion&quot;:0.9785575048732944,&quot;fontSize&quot;:100}"></path><path d="M213.21168,255.79769c1.21347,0.71909 2.88761,1.38201 5.02242,1.98874c2.13481,0.60673 4.01119,0.9101 5.62915,0.9101c1.79773,0 3.23592,-0.37078 4.31456,-1.11235c1.07864,-0.74156 1.61796,-1.56178 1.61796,-2.46065c0,-0.58426 -0.39325,-1.15729 -1.17976,-1.71908c-0.78651,-0.56179 -2.05616,-1.35954 -3.80895,-2.39323l-2.08986,-1.21347c-3.05615,-1.79773 -5.43814,-3.2921 -7.14599,-4.4831c-1.70785,-1.191 -3.23592,-2.73031 -4.58422,-4.61793c-1.3483,-1.88762 -2.02245,-4.02243 -2.02245,-6.40442c0,-2.51683 0.70786,-4.77523 2.12357,-6.77521c1.41571,-1.99998 3.40446,-3.56176 5.96623,-4.68534c2.56177,-1.12358 5.5505,-1.68537 8.96619,-1.68537c2.33705,0 4.73028,0.33707 7.1797,1.01122c2.44941,0.67415 4.55051,1.59549 6.3033,2.76401l-3.64041,8.29204c-2.382,-0.80898 -4.21344,-1.3483 -5.49432,-1.61796c-1.28088,-0.26966 -2.68536,-0.40449 -4.21344,-0.40449c-1.3483,0 -2.43818,0.3146 -3.26963,0.94381c-0.83145,0.62921 -1.24718,1.39324 -1.24718,2.29211c0,0.67415 0.34831,1.26965 1.04493,1.7865c0.69662,0.51685 1.85391,1.20223 3.47187,2.05616l2.42694,1.3483c2.83143,1.61796 5.19095,3.11233 7.07857,4.4831c1.88762,1.37077 3.49434,2.98873 4.82017,4.85388c1.32583,1.86515 1.98874,3.96625 1.98874,6.3033c0,2.60671 -0.74156,4.92129 -2.22469,6.94374c-1.48313,2.02245 -3.6067,3.61794 -6.37072,4.78646c-2.76401,1.16853 -5.9887,1.75279 -9.67405,1.75279c-2.382,0 -5.04489,-0.35955 -7.98868,-1.07864c-2.94379,-0.71909 -5.29208,-1.59549 -7.04487,-2.62918z" data-paper-data="{&quot;elementType&quot;:&quot;letter&quot;,&quot;baseline&quot;:69.3,&quot;baselineProportion&quot;:0.981586402266289,&quot;fontSize&quot;:100}"></path><path d="M270.64925,234.09006c3.95501,0 6.92127,1.15729 8.89878,3.47187c1.97751,2.31458 2.96626,5.38196 2.96626,9.20215v21.10089h-12.26953v-19.95484c0,-2.60671 -1.16853,-3.91007 -3.50558,-3.91007c-0.71909,0 -1.73032,0.19101 -3.03367,0.57303c-1.30336,0.38202 -2.49435,0.82022 -3.57299,1.31459v21.97729h-12.26953v-46.85342l12.26953,-0.74156v16.6515c3.77524,-1.88762 7.28082,-2.83143 10.51674,-2.83143z" data-paper-data="{&quot;elementType&quot;:&quot;letter&quot;,&quot;baseline&quot;:70.60000000000001,&quot;baselineProportion&quot;:1,&quot;fontSize&quot;:100}"></path><path d="M301.25565,235.1687v32.69627h-12.26953v-32.69627zM295.05347,230.71931c-1.79773,0 -3.34828,-0.65168 -4.65163,-1.95503c-1.30336,-1.30336 -1.95503,-2.8539 -1.95503,-4.65163c0,-1.84268 0.65168,-3.42693 1.95503,-4.75276c1.30336,-1.32583 2.8539,-1.98874 4.65163,-1.98874c1.84268,0 3.42693,0.66291 4.75276,1.98874c1.32583,1.32583 1.98874,2.91008 1.98874,4.75276c0,1.79773 -0.66291,3.34828 -1.98874,4.65163c-1.32583,1.30336 -2.91008,1.95503 -4.75276,1.95503" data-paper-data="{&quot;elementType&quot;:&quot;letter&quot;,&quot;baseline&quot;:74.9,&quot;baselineProportion&quot;:1,&quot;fontSize&quot;:100}"></path><path d="M325.52505,234.02265c5.03365,0 9.08979,1.43819 12.16841,4.31456c3.07862,2.87637 4.61793,7.12352 4.61793,12.74143c0,5.7078 -1.56178,10.05607 -4.68534,13.0448c-3.12356,2.98873 -7.337,4.4831 -12.64031,4.4831c-1.52807,0 -2.96626,-0.22472 -4.31456,-0.67415v14.02232l-12.26953,0.67415v-47.39274h6.13476l1.88762,1.88762c1.3483,-0.94381 2.79772,-1.69661 4.34827,-2.2584c1.55054,-0.56179 3.1348,-0.84269 4.75276,-0.84269M324.17675,259.16844c1.57302,0 2.87637,-0.71909 3.91007,-2.15728c1.0337,-1.43819 1.55054,-3.39322 1.55054,-5.8651c0,-2.47188 -0.51685,-4.37074 -1.55054,-5.69657c-1.0337,-1.32583 -2.51683,-1.98874 -4.44939,-1.98874c-0.94381,0 -1.93256,0.33707 -2.96626,1.01122v13.82007c1.30336,0.58426 2.47188,0.87639 3.50558,0.87639z" data-paper-data="{&quot;elementType&quot;:&quot;letter&quot;,&quot;baseline&quot;:50.2,&quot;baselineProportion&quot;:0.69625520110957,&quot;fontSize&quot;:100}"></path></g></g></g></g><g data-paper-data="{&quot;elementType&quot;:&quot;emblem&quot;}" fill="#125e5e" stroke="none" stroke-width="1"><g data-paper-data="{&quot;baselineProportion&quot;:1,&quot;fontSize&quot;:100,&quot;baseline&quot;:68,&quot;elementType&quot;:&quot;word&quot;}"><path d="M422.31346,250.76006l-6.35687,8.56795l-5.04404,0.69096l-7.6006,-9.25892v22.73271h-12.57554v-46.98555h8.63705l14.16476,17.89597l12.99012,-17.89597h8.36066v46.98555h-12.57554z" data-paper-data="{&quot;elementType&quot;:&quot;letter&quot;,&quot;baseline&quot;:68,&quot;baselineProportion&quot;:1,&quot;fontSize&quot;:100}"></path></g></g></g></svg>